<svg id="Capa_1" enable-background="new 0 0 512 512" height="512" viewBox="0 0 512 512" width="512" xmlns="http://www.w3.org/2000/svg"><g><g><circle cx="256" cy="256" fill="#ff4155" r="256"/></g><g><path d="m376 512h-240c-22.091 0-40-17.909-40-40v-432c0-22.091 17.909-40 40-40h240c22.091 0 40 17.909 40 40v432c0 22.091-17.909 40-40 40z" fill="#2a428c"/></g><g><path d="m163.466 472v-432c0-22.091 17.909-40 40-40h-67.466c-22.091 0-40 17.909-40 40v432c0 22.091 17.909 40 40 40h67.466c-22.091 0-40-17.909-40-40z" fill="#1c2e7a"/></g><g><g><circle cx="308.5" cy="30" fill="#112360" r="7.5"/></g><g><path d="m278.5 37.5h-75c-4.142 0-7.5-3.358-7.5-7.5 0-4.142 3.358-7.5 7.5-7.5h75c4.142 0 7.5 3.358 7.5 7.5 0 4.142-3.358 7.5-7.5 7.5z" fill="#112360"/></g></g><g><path d="m136 422c-5.523 0-10-4.477-10-10v-342c0-5.523 4.477-10 10-10h240c5.523 0 10 4.477 10 10v342c0 5.523-4.477 10-10 10z" fill="#9bd8f9"/></g><g><circle cx="256" cy="467" fill="#1c2e7a" r="30"/></g><g><path d="m256 467c0-11.102 6.036-20.789 15-25.977-4.414-2.554-9.534-4.023-15-4.023-16.569 0-30 13.431-30 30s13.431 30 30 30c5.466 0 10.586-1.469 15-4.023-8.964-5.188-15-14.875-15-25.977z" fill="#112360"/></g><g><g><g><path d="m296.886 160.391-.718-6.326c-.229-2.019.933-3.937 2.828-4.67 2.911-1.125 3.806-4.818 1.724-7.143-10.987-12.275-26.95-20.002-44.72-20.002-33.137 0-60 26.863-60 60v50h30v-50c0-16.569 13.431-30 30-30 10.459 0 19.662 5.356 25.03 13.471 1.078 1.629 3.113 2.337 4.983 1.774l7.722-2.324c2.068-.622 3.394-2.634 3.151-4.78z" fill="#fff"/></g><g><path d="m304.285 191.299.755-4.356c.491-2.832-1.782-5.384-4.652-5.222l-10.174.574c-2.365.133-4.215 2.09-4.215 4.459v45.496h30v-30.756c0-2.222-1.633-4.106-3.832-4.421l-4.116-.59c-2.491-.358-4.196-2.704-3.766-5.184z" fill="#fff"/></g><g><path d="m241 137.25c0-8.284 6.716-15 15-15-33.137 0-60 26.863-60 60v50h30v-50c0-16.569 13.431-30 30-30-8.284 0-15-6.716-15-15z" fill="#d3dcfb"/></g><g><path d="m308.743 158.963-3.174 11.421c-.608 2.186.333 4.508 2.292 5.654l10.556 6.178c3.333 1.951 7.526-.453 7.526-4.315v-17.599c0-2.761-2.239-5-5-5h-7.382c-2.246 0-4.217 1.497-4.818 3.661z" fill="#fff"/></g></g><g><path d="m316 359.75h-120c-16.569 0-30-13.431-30-30v-90c0-16.569 13.431-30 30-30h120c16.569 0 30 13.431 30 30v90c0 16.569-13.431 30-30 30z" fill="#ffdd40"/></g><g><path d="m196 329.75v-90c0-16.568 13.431-30 30-30h-30c-16.569 0-30 13.432-30 30v90c0 16.568 13.431 30 30 30h30c-16.569 0-30-13.431-30-30z" fill="#ffb332"/></g><g><path d="m271 269.75c0-8.284-6.716-15-15-15s-15 6.716-15 15c0 5.549 3.021 10.382 7.5 12.977v24.523c0 4.142 3.358 7.5 7.5 7.5s7.5-3.358 7.5-7.5v-24.523c4.479-2.595 7.5-7.428 7.5-12.977z" fill="#ffb332"/></g><g><path d="m208.5 269.75h-42.5v-15h42.5c4.142 0 7.5 3.358 7.5 7.5 0 4.142-3.358 7.5-7.5 7.5z" fill="#ffb332"/></g><g><path d="m208.5 314.75h-42.5v-15h42.5c4.142 0 7.5 3.358 7.5 7.5 0 4.142-3.358 7.5-7.5 7.5z" fill="#ffb332"/></g><g><path d="m208.5 292.25h-42.5v-15h42.5c4.142 0 7.5 3.358 7.5 7.5 0 4.142-3.358 7.5-7.5 7.5z" fill="#ffb332"/></g><g><path d="m303.5 269.75h42.5v-15h-42.5c-4.142 0-7.5 3.358-7.5 7.5 0 4.142 3.358 7.5 7.5 7.5z" fill="#ffb332"/></g><g><path d="m303.5 314.75h42.5v-15h-42.5c-4.142 0-7.5 3.358-7.5 7.5 0 4.142 3.358 7.5 7.5 7.5z" fill="#ffb332"/></g><g><path d="m303.5 292.25h42.5v-15h-42.5c-4.142 0-7.5 3.358-7.5 7.5 0 4.142 3.358 7.5 7.5 7.5z" fill="#ffb332"/></g></g></g></svg>