<svg id="Layer_1" enable-background="new 0 0 511.534 511.534" height="512" viewBox="0 0 511.534 511.534" width="512" xmlns="http://www.w3.org/2000/svg"><g><path d="m344.866 487.975 131.531-105.73c22.299-36.922 35.136-80.199 35.136-126.478 0-135.311-109.691-245.002-245.002-245.002s-245.002 109.691-245.002 245.002 109.691 245.002 245.002 245.002c27.395 0 53.739-4.499 78.335-12.794z" fill="#2a428c"/><path d="m476.397 213.058c0-27.422-22.436-49.858-49.858-49.858h-70.451v124.094c0 26.72-21.739 48.46-48.46 48.46h-144.244c-10.374 0-20.064 4.848-26.587 13.303-5.421 7.027-11.425 13.316-17.887 18.815v49.857c0 27.422 22.436 49.858 49.858 49.858h144.244c10.029 0 19.353 4.817 25.479 12.758 2.037 2.641 4.164 5.186 6.374 7.631 55.342-18.663 101.832-56.556 131.531-105.73v-169.188z" fill="#e9efff"/><path d="m274.018 335.753h-110.634c-10.374 0-20.064 4.848-26.587 13.303-5.421 7.027-11.425 13.316-17.887 18.815v49.857c0 27.422 22.436 49.858 49.858 49.858h123.576c-56.417-46.652-27.448-114.042-18.326-131.833z" fill="#bec8f7"/><path d="m307.628 32.765h-257.77c-27.422 0-49.858 22.436-49.858 49.858v204.67c0 27.422 22.436 49.858 49.858 49.858 7.01 0 10.895 8.05 6.608 13.595-4.566 5.908-9.687 11.417-15.37 16.423-10.604 9.34-4.639 28.488 8.808 28.446 34.175-.106 66.203-17.453 88.001-45.707 6.126-7.941 15.45-12.758 25.479-12.758h144.244c27.422 0 49.858-22.436 49.858-49.858v-204.669c.001-27.422-22.436-49.858-49.858-49.858z" fill="#4fabf7"/><path d="m0 82.623v204.67c0 27.422 22.436 49.858 49.858 49.858 7.01 0 10.895 8.05 6.608 13.595-4.566 5.908-9.687 11.417-15.37 16.423-10.604 9.34-4.638 28.488 8.808 28.446 34.175-.106 66.203-17.453 88.001-45.707 6.126-7.941 15.45-12.758 25.479-12.758h15.359c-79.011-57.928-32.567-131.105-32.567-131.105v-38.185c-49.579-68.552 18.75-135.096 18.75-135.096h-115.068c-27.422.001-49.858 22.437-49.858 49.859z" fill="#1886ea"/><g fill="#e9efff"><circle cx="81.042" cy="186.953" r="19.093"/><circle cx="146.176" cy="186.953" r="19.093"/><circle cx="211.31" cy="186.953" r="19.093"/><circle cx="276.444" cy="186.953" r="19.093"/></g></g></svg>