<svg id="Layer_1" enable-background="new 0 0 512 512" height="512" viewBox="0 0 512 512" width="512" xmlns="http://www.w3.org/2000/svg"><g><path d="m256 11.002c-135.309 0-244.998 109.689-244.998 244.998 0 116.155 80.835 213.427 189.318 238.639l.001-.009 111.348.012c108.488-25.208 189.329-122.483 189.329-238.642 0-135.309-109.689-244.998-244.998-244.998z" fill="#7255ce"/><path d="m311.67 494.642 199.855-258.383-34.912 24.98-168.513 234.204c1.194-.258 2.384-.526 3.57-.801z" fill="#ccf4ff"/><path d="m203.897 495.44-168.511-234.201-34.912-24.98 199.847 258.371c1.189.277 2.38.55 3.576.81z" fill="#3ab0fa"/><path d="m283.55 499.447c8.357-.935 16.586-2.291 24.667-4.045l168.396-233.524-111.475 19.616z" fill="#b0ebff"/><path d="m203.783 495.402c8.081 1.755 16.31 3.11 24.667 4.045l-81.588-217.954-111.476-19.615z" fill="#56c2ff"/><path d="m145.501 283.073 82.49 216.322c9.193 1.047 18.536 1.603 28.009 1.603s18.816-.557 28.009-1.603l82.49-216.322c-95.028-9.919-220.998 0-220.998 0z" fill="#86d8fc"/><path d="m256 340.977v160.021c9.473 0 18.816-.557 28.009-1.603l82.49-216.322-108.32 54.371c-1.336.671-2.179 2.038-2.179 3.533z" fill="#ccf4ff"/><path d="m363.729 110.935-55.868-6.614c-1.536-.182-3.081-.273-4.627-.273h-94.468c-1.546 0-3.092.091-4.627.273l-55.868 6.614c-1.839.218-3.641.674-5.362 1.356l-28.115 7.54 19.801 9.47 59.605 14.269h123.6l59.606-14.269 19.801-9.47-28.115-7.54c-1.721-.683-3.524-1.138-5.363-1.356z" fill="#b0ebff"/><path d="m134.594 127.497c-62.832 73.353-99.208 134.381-99.208 134.381l110.114 21.196c23.834-39.231 48.699-143.111 48.699-143.111z" fill="#56c2ff"/><path d="m377.406 127.497-59.606 12.465s19.96 82.235 48.699 143.111l110.114-21.196c0 .001-53.306-79.666-99.207-134.38z" fill="#56c2ff"/><path d="m35.386 261.878-33.469-23.11c-2.29-1.581-2.578-4.856-.598-6.812l113.474-112.125 19.801 7.666z" fill="#1e9ef4"/><path d="m317.8 139.962c-15.031 0-108.539 0-123.6 0l-48.699 143.111h220.998z" fill="#86d8fc"/><path d="m476.613 261.878 33.469-23.11c2.29-1.581 2.578-4.856.598-6.812l-113.473-112.125-19.801 7.666z" fill="#86d8fc"/><path d="m194.2 139.962 61.8 51.331 61.8-51.331z" fill="#56c2ff"/><path d="m366.499 283.073-110.499-91.78-110.499 91.78z" fill="#56c2ff"/><path d="m317.8 139.962 55.733 42.784 3.873-55.249z" fill="#86d8fc"/><path d="m476.613 261.878-103.08-79.132-7.034 100.327z" fill="#86d8fc"/><path d="m476.613 261.878-25.729-89.008-73.478-45.373z" fill="#b0ebff"/><g fill="#3ab0fa"><path d="m194.2 139.962-55.733 42.784-3.873-55.249z"/><path d="m35.386 261.878 103.081-79.132 7.034 100.327z"/><path d="m35.386 261.878 25.73-89.008 73.478-45.373z"/></g><path d="m338.699 83.901c23.293 4.857 46.671-6.747 58.24-28.313-39.862-28.085-88.471-44.586-140.939-44.586s-101.077 16.501-140.939 44.585c11.568 21.566 34.947 33.17 58.24 28.313 60.029-12.516 104.418-12.714 165.398.001z" fill="#836cd9"/></g></svg>