<svg id="Capa_1" enable-background="new 0 0 512 512" height="512" viewBox="0 0 512 512" width="512" xmlns="http://www.w3.org/2000/svg"><g><g><path d="m465.986 402.44c28.993-41.497 46.014-91.977 46.014-146.44 0-141.385-114.615-256-256-256s-256 114.615-256 256c0 54.463 17.021 104.943 46.014 146.44z" fill="#ffdd40"/></g><g><path d="m466 60v342.44c-46.27 66.23-123.08 109.56-210 109.56s-163.73-43.33-210-109.56v-342.44l55.17-7.88 154.83-22.12 154.83 22.12z" fill="#ff4155"/></g><g><path d="m125.67 48.62-24.5 3.5-55.17 7.88v342.44c46.27 66.23 123.08 109.56 210 109.56s163.73-43.33 210-109.56c-187.959 0-340.329-152.371-340.329-340.329v-13.491z" fill="#e80054"/></g><g><path d="m466 60h-420v-40c0-11.046 8.954-20 20-20h380c11.046 0 20 8.954 20 20z" fill="#2a428c"/></g><g><path d="m114.557 50c0-5.523 4.477-10 10-10v-20c-5.523 0-10-4.477-10-10s4.477-10 10-10h-58.557c-11.046 0-20 8.954-20 20v40h78.557c-5.523 0-10-4.477-10-10z" fill="#1c2e7a"/></g><g><circle cx="423.5" cy="30" fill="#ff4155" r="10"/></g><g><circle cx="388.5" cy="30" fill="#ffdd40" r="10"/></g><g><circle cx="353.5" cy="30" fill="#38c674" r="10"/></g><g><path d="m88.5 40h215c5.523 0 10-4.477 10-10 0-5.523-4.477-10-10-10h-215c-5.523 0-10 4.477-10 10 0 5.523 4.477 10 10 10z" fill="#3c58a0"/></g><g><g><path d="m188.173 206.57 60.149-102.18c3.446-5.853 11.911-5.853 15.356 0l60.149 102.18c3.496 5.94-.786 13.43-7.678 13.43h-120.298c-6.892 0-11.175-7.49-7.678-13.43z" fill="#ffdd40"/></g><g><g><path d="m256 183.015c-5.523 0-10-4.477-10-10v-34.597c0-5.523 4.477-10 10-10 5.523 0 10 4.477 10 10v34.597c0 5.523-4.477 10-10 10z" fill="#2a428c"/></g><g><circle cx="256" cy="200.515" fill="#1c2e7a" r="10"/></g><g><path d="m256 165.717c-5.523 0-10-4.477-10-10v17.298c0 5.523 4.477 10 10 10s10-4.477 10-10v-17.298c0 5.523-4.477 10-10 10z" fill="#1c2e7a"/></g></g></g><g><path d="m356 287.5h-200c-4.143 0-7.5-3.358-7.5-7.5s3.357-7.5 7.5-7.5h200c4.143 0 7.5 3.358 7.5 7.5s-3.357 7.5-7.5 7.5z" fill="#ff7186"/></g><g><path d="m396 367.5h-280c-4.143 0-7.5-3.358-7.5-7.5s3.357-7.5 7.5-7.5h280c4.143 0 7.5 3.358 7.5 7.5s-3.357 7.5-7.5 7.5z" fill="#ff7186"/></g><g><path d="m396 397.5h-280c-4.143 0-7.5-3.358-7.5-7.5s3.357-7.5 7.5-7.5h280c4.143 0 7.5 3.358 7.5 7.5s-3.357 7.5-7.5 7.5z" fill="#ff7186"/></g><g><path d="m256 427.5h-140c-4.143 0-7.5-3.358-7.5-7.5s3.357-7.5 7.5-7.5h140c4.143 0 7.5 3.358 7.5 7.5s-3.357 7.5-7.5 7.5z" fill="#ff7186"/></g><g><path d="m326 317.5h-140c-4.143 0-7.5-3.358-7.5-7.5s3.357-7.5 7.5-7.5h140c4.143 0 7.5 3.358 7.5 7.5s-3.357 7.5-7.5 7.5z" fill="#ff7186"/></g></g></svg>